<svg width="481" height="3385" viewBox="0 0 481 3385" fill="none" xmlns="http://www.w3.org/2000/svg">
<rect width="481" height="3385" fill="#1E1E1E"/>
<g clip-path="url(#clip0_0_1)">
<path d="M191.744 2497.01H174.744V2514.01H191.744V2497.01ZM191.744 2387.63V2370.63H174.744V2387.63H191.744ZM222.506 2387.63H239.506V2370.63H222.506V2387.63ZM222.506 2452.57H205.506V2469.57H222.506V2452.57ZM247.506 2452.57V2469.57H264.506V2452.57H247.506ZM247.506 2397.1V2380.1H230.506V2397.1H247.506ZM276.412 2397.1H293.412V2380.1H276.412V2397.1ZM276.412 2452.57H259.412V2469.57H276.412V2452.57ZM334.908 2452.57H351.908V2435.57H334.908V2452.57ZM334.908 2497.01V2514.01H351.908V2497.01H334.908ZM208.744 2497.01V2387.63H174.744V2497.01H208.744ZM191.744 2404.63H222.506V2370.63H191.744V2404.63ZM205.506 2387.63V2452.57H239.506V2387.63H205.506ZM222.506 2469.57H247.506V2435.57H222.506V2469.57ZM264.506 2452.57V2397.1H230.506V2452.57H264.506ZM247.506 2414.1H276.412V2380.1H247.506V2414.1ZM259.412 2397.1V2452.57H293.412V2397.1H259.412ZM276.412 2469.57H334.908V2435.57H276.412V2469.57ZM317.908 2452.57V2497.01H351.908V2452.57H317.908ZM334.908 2480.01H191.744V2514.01H334.908V2480.01ZM191.744 2312.05H174.744V2329.05H191.744V2312.05ZM191.744 2267.71V2250.71H174.744V2267.71H191.744ZM334.908 2267.71H351.908V2250.71H334.908V2267.71ZM334.908 2312.05V2329.05H351.908V2312.05H334.908ZM208.744 2312.05V2267.71H174.744V2312.05H208.744ZM191.744 2284.71H334.908V2250.71H191.744V2284.71ZM317.908 2267.71V2312.05H351.908V2267.71H317.908ZM334.908 2295.05H191.744V2329.05H334.908V2295.05ZM191.744 2185.58H174.744V2202.58H191.744V2185.58ZM191.744 2144.27L182.178 2130.22L174.744 2135.28V2144.27H191.744ZM270.943 2090.37L280.509 2104.42L326.133 2073.37H270.943V2090.37ZM191.744 2090.37H174.744V2107.37H191.744V2090.37ZM191.744 2048.67V2031.67H174.744V2048.67H191.744ZM334.908 2048.67H351.908V2031.67H334.908V2048.67ZM334.908 2090.37L344.486 2104.41L351.908 2099.35V2090.37H334.908ZM256.295 2143.98L246.716 2129.93L201.195 2160.98H256.295V2143.98ZM334.908 2143.98H351.908V2126.98H334.908V2143.98ZM334.908 2185.58V2202.58H351.908V2185.58H334.908ZM208.744 2185.58V2144.27H174.744V2185.58H208.744ZM201.309 2158.33L280.509 2104.42L261.378 2076.31L182.178 2130.22L201.309 2158.33ZM270.943 2073.37H191.744V2107.37H270.943V2073.37ZM208.744 2090.37V2048.67H174.744V2090.37H208.744ZM191.744 2065.67H334.908V2031.67H191.744V2065.67ZM317.908 2048.67V2090.37H351.908V2048.67H317.908ZM325.33 2076.32L246.716 2129.93L265.873 2158.02L344.486 2104.41L325.33 2076.32ZM256.295 2160.98H334.908V2126.98H256.295V2160.98ZM317.908 2143.98V2185.58H351.908V2143.98H317.908ZM334.908 2168.58H191.744V2202.58H334.908V2168.58ZM191.744 1967.51H174.744V1984.51H191.744V1967.51ZM191.744 1923.18V1906.18H174.744V1923.18H191.744ZM334.908 1923.18H351.908V1906.18H334.908V1923.18ZM334.908 1967.51V1984.51H351.908V1967.51H334.908ZM208.744 1967.51V1923.18H174.744V1967.51H208.744ZM191.744 1940.18H334.908V1906.18H191.744V1940.18ZM317.908 1923.18V1967.51H351.908V1923.18H317.908ZM334.908 1950.51H191.744V1984.51H334.908V1950.51ZM287.545 1849.06L270.578 1850.12L271.665 1867.48L288.994 1866L287.545 1849.06ZM284.908 1806.97L282.661 1790.12L266.95 1792.21L267.941 1808.03L284.908 1806.97ZM300.533 1801.4L311.004 1814.79L311.023 1814.78L311.043 1814.76L300.533 1801.4ZM304.83 1767.32L317.685 1756.19H317.677L317.669 1756.18L304.83 1767.32ZM276.217 1789.68L292.803 1793.41L292.811 1793.37L292.82 1793.33L276.217 1789.68ZM258.834 1831.19L246.034 1820L246.012 1820.02L245.99 1820.05L258.834 1831.19ZM210.396 1837.34L201.097 1851.57L201.114 1851.58L201.131 1851.59L210.396 1837.34ZM194.967 1818.1L210.555 1811.32L210.543 1811.29L210.53 1811.26L194.967 1818.1ZM199.556 1741.05L213.39 1750.93L213.428 1750.88L213.466 1750.82L199.556 1741.05ZM231.978 1723.86L248.949 1722.87L247.89 1704.78L229.906 1706.99L231.978 1723.86ZM234.42 1765.56L237.297 1782.32L252.279 1779.74L251.391 1764.57L234.42 1765.56ZM220.357 1772.59L233.417 1783.48L233.466 1783.42L233.514 1783.36L220.357 1772.59ZM219.283 1798.86L232.396 1788.04L232.317 1787.95L232.236 1787.85L219.283 1798.86ZM233.345 1799.55L220.749 1788.13L220.562 1788.34L220.383 1788.55L233.345 1799.55ZM238.619 1784.7L222 1781.12L221.988 1781.18L221.976 1781.23L238.619 1784.7ZM251.314 1743.2L266.424 1750.99L266.46 1750.92L266.496 1750.85L251.314 1743.2ZM267.135 1724.94L275.859 1739.53L275.914 1739.49L275.969 1739.46L267.135 1724.94ZM331.392 1748.08L346.977 1741.29L346.957 1741.24L346.936 1741.2L331.392 1748.08ZM304.511 1847.99L301.875 1805.9L267.941 1808.03L270.578 1850.12L304.511 1847.99ZM287.155 1823.82C295.559 1822.7 304.112 1820.18 311.004 1814.79L290.062 1788.01C289.793 1788.22 287.929 1789.41 282.661 1790.12L287.155 1823.82ZM311.043 1814.76C321.575 1806.48 326.224 1794.67 326.224 1781.87H292.224C292.224 1785.99 291.08 1787.21 290.023 1788.04L311.043 1814.76ZM326.224 1781.87C326.224 1773.13 324.205 1763.73 317.685 1756.19L291.975 1778.44C291.314 1777.68 292.224 1777.98 292.224 1781.87H326.224ZM317.669 1756.18C312.05 1749.7 304.164 1745.14 294.478 1745.14V1779.14C294.192 1779.14 293.836 1779.11 293.441 1779.02C293.045 1778.92 292.689 1778.79 292.393 1778.64C291.792 1778.34 291.691 1778.12 291.991 1778.46L317.669 1756.18ZM294.478 1745.14C285.073 1745.14 277.399 1749.52 271.881 1755.65L297.153 1778.4C297.428 1778.09 297.302 1778.33 296.688 1778.63C296.01 1778.96 295.207 1779.14 294.478 1779.14V1745.14ZM271.881 1755.65C268.217 1759.73 265.894 1764.88 264.283 1769.28C262.54 1774.04 261.006 1779.7 259.613 1786.03L292.82 1793.33C294.032 1787.82 295.183 1783.78 296.207 1780.98C297.363 1777.83 297.888 1777.58 297.153 1778.4L271.881 1755.65ZM259.631 1785.95C255.461 1804.5 250.435 1814.96 246.034 1820L271.634 1842.37C281.686 1830.87 288.248 1813.67 292.803 1793.41L259.631 1785.95ZM245.99 1820.05C242.049 1824.59 237.553 1826.69 231.197 1826.69V1860.69C247.237 1860.69 261.166 1854.44 271.677 1842.32L245.99 1820.05ZM231.197 1826.69C227.316 1826.69 223.575 1825.63 219.661 1823.08L201.131 1851.59C210.239 1857.51 220.365 1860.69 231.197 1860.69V1826.69ZM219.696 1823.11C216.377 1820.94 213.19 1817.37 210.555 1811.32L179.378 1824.88C184.165 1835.88 191.264 1845.14 201.097 1851.57L219.696 1823.11ZM210.53 1811.26C208.095 1805.72 206.302 1796.63 206.302 1782.85H172.302C172.303 1798.88 174.286 1813.29 179.403 1824.94L210.53 1811.26ZM206.302 1782.85C206.302 1766.26 209.47 1756.42 213.39 1750.93L185.723 1731.17C175.971 1744.82 172.302 1762.84 172.302 1782.85H206.302ZM213.466 1750.82C216.765 1746.13 222.603 1742.14 234.05 1740.73L229.906 1706.99C211.666 1709.23 195.89 1716.7 185.647 1731.28L213.466 1750.82ZM215.007 1724.86L217.449 1766.55L251.391 1764.57L248.949 1722.87L215.007 1724.86ZM231.543 1748.81C222.714 1750.32 213.618 1753.98 207.2 1761.83L233.514 1783.36C232.956 1784.04 233.234 1783.01 237.297 1782.32L231.543 1748.81ZM207.297 1761.71C201.026 1769.23 198.963 1778.46 198.963 1787.24H232.963C232.963 1783.52 233.829 1782.98 233.417 1783.48L207.297 1761.71ZM198.963 1787.24C198.963 1794.45 200.465 1802.97 206.33 1809.87L232.236 1787.85C232.955 1788.7 233.144 1789.35 233.139 1789.33C233.134 1789.32 233.087 1789.15 233.044 1788.79C233 1788.43 232.963 1787.92 232.963 1787.24H198.963ZM206.17 1809.68C211.252 1815.84 218.546 1819.77 227.193 1819.77V1785.77C228.074 1785.77 229.231 1785.97 230.399 1786.55C231.531 1787.11 232.167 1787.77 232.396 1788.04L206.17 1809.68ZM227.193 1819.77C235.621 1819.77 242.087 1815.52 246.308 1810.54L220.383 1788.55C220.587 1788.31 221.27 1787.57 222.552 1786.9C223.92 1786.19 225.539 1785.77 227.193 1785.77V1819.77ZM245.942 1810.96C249.19 1807.38 251.007 1803.04 252.099 1799.96C253.332 1796.49 254.362 1792.49 255.262 1788.17L221.976 1781.23C221.248 1784.73 220.586 1787.1 220.061 1788.58C219.937 1788.93 219.835 1789.19 219.758 1789.37C219.68 1789.55 219.64 1789.63 219.645 1789.62C219.649 1789.61 219.721 1789.47 219.877 1789.24C220.03 1789.01 220.312 1788.61 220.749 1788.13L245.942 1810.96ZM255.237 1788.28C259.357 1769.16 263.22 1757.2 266.424 1750.99L236.205 1735.41C230.814 1745.86 226.214 1761.57 222 1781.12L255.237 1788.28ZM266.496 1750.85C269.676 1744.54 272.985 1741.25 275.859 1739.53L258.41 1710.35C248.654 1716.18 241.416 1725.06 236.133 1735.55L266.496 1750.85ZM275.969 1739.46C279.468 1737.33 283.444 1736.17 288.326 1736.17V1702.17C277.583 1702.17 267.431 1704.86 258.3 1710.41L275.969 1739.46ZM288.326 1736.17C294.163 1736.17 299.392 1737.73 304.397 1741.01L323.036 1712.57C312.546 1705.7 300.849 1702.17 288.326 1702.17V1736.17ZM304.397 1741.01C309.197 1744.16 313.032 1748.6 315.848 1754.96L346.936 1741.2C341.68 1729.33 333.731 1719.58 323.036 1712.57L304.397 1741.01ZM315.807 1754.87C318.554 1761.17 320.349 1770.16 320.349 1782.55H354.349C354.349 1767.21 352.173 1753.22 346.977 1741.29L315.807 1754.87ZM320.349 1782.55C320.349 1805.81 315.658 1816.73 311.266 1821.12L335.308 1845.16C349.665 1830.8 354.349 1808 354.349 1782.55H320.349ZM311.266 1821.12C304.999 1827.39 296.958 1831.19 286.095 1832.12L288.994 1866C307.037 1864.45 322.825 1857.64 335.308 1845.16L311.266 1821.12ZM191.744 1646.62H174.744V1663.62H191.744V1646.62ZM191.744 1602.38V1585.38H174.744V1602.38H191.744ZM241.842 1602.38V1619.38H258.842V1602.38H241.842ZM241.842 1554.04H258.842V1537.04H241.842V1554.04ZM191.744 1554.04H174.744V1571.04H191.744V1554.04ZM191.744 1509.6V1492.6H174.744V1509.6H191.744ZM334.908 1509.6H351.908V1492.6H334.908V1509.6ZM334.908 1554.04V1571.04H351.908V1554.04H334.908ZM276.998 1554.04V1537.04H259.998V1554.04H276.998ZM276.998 1602.38H259.998V1619.38H276.998V1602.38ZM334.908 1602.38H351.908V1585.38H334.908V1602.38ZM334.908 1646.62V1663.62H351.908V1646.62H334.908ZM208.744 1646.62V1602.38H174.744V1646.62H208.744ZM191.744 1619.38H241.842V1585.38H191.744V1619.38ZM258.842 1602.38V1554.04H224.842V1602.38H258.842ZM241.842 1537.04H191.744V1571.04H241.842V1537.04ZM208.744 1554.04V1509.6H174.744V1554.04H208.744ZM191.744 1526.6H334.908V1492.6H191.744V1526.6ZM317.908 1509.6V1554.04H351.908V1509.6H317.908ZM334.908 1537.04H276.998V1571.04H334.908V1537.04ZM259.998 1554.04V1602.38H293.998V1554.04H259.998ZM276.998 1619.38H334.908V1585.38H276.998V1619.38ZM317.908 1602.38V1646.62H351.908V1602.38H317.908ZM334.908 1629.62H191.744V1663.62H334.908V1629.62ZM191.744 1313.41H174.744V1330.41H191.744V1313.41ZM191.744 1269.17V1252.17H174.744V1269.17H191.744ZM299.654 1269.17V1286.17H316.654V1269.17H299.654ZM299.654 1200.13V1183.13H282.654V1200.13H299.654ZM334.908 1200.13H351.908V1183.13H334.908V1200.13ZM334.908 1313.41V1330.41H351.908V1313.41H334.908ZM208.744 1313.41V1269.17H174.744V1313.41H208.744ZM191.744 1286.17H299.654V1252.17H191.744V1286.17ZM316.654 1269.17V1200.13H282.654V1269.17H316.654ZM299.654 1217.13H334.908V1183.13H299.654V1217.13ZM317.908 1200.13V1313.41H351.908V1200.13H317.908ZM334.908 1296.41H191.744V1330.41H334.908V1296.41ZM191.744 1128.26H174.744V1145.26H191.744V1128.26ZM191.744 1083.92V1066.92H174.744V1083.92H191.744ZM334.908 1083.92H351.908V1066.92H334.908V1083.92ZM334.908 1128.26V1145.26H351.908V1128.26H334.908ZM208.744 1128.26V1083.92H174.744V1128.26H208.744ZM191.744 1100.92H334.908V1066.92H191.744V1100.92ZM317.908 1083.92V1128.26H351.908V1083.92H317.908ZM334.908 1111.26H191.744V1145.26H334.908V1111.26ZM191.744 1001.79H174.744V1018.79H191.744V1001.79ZM191.744 960.482L182.178 946.428L174.744 951.489V960.482H191.744ZM270.943 906.576L280.509 920.629L326.132 889.576H270.943V906.576ZM191.744 906.576H174.744V923.576H191.744V906.576ZM191.744 864.876V847.876H174.744V864.876H191.744ZM334.908 864.876H351.908V847.876H334.908V864.876ZM334.908 906.576L344.486 920.62L351.908 915.559V906.576H334.908ZM256.295 960.189L246.716 946.144L201.195 977.189H256.295V960.189ZM334.908 960.189H351.908V943.189H334.908V960.189ZM334.908 1001.79V1018.79H351.908V1001.79H334.908ZM208.744 1001.79V960.482H174.744V1001.79H208.744ZM201.309 974.535L280.509 920.629L261.378 892.522L182.178 946.428L201.309 974.535ZM270.943 889.576H191.744V923.576H270.943V889.576ZM208.744 906.576V864.876H174.744V906.576H208.744ZM191.744 881.876H334.908V847.876H191.744V881.876ZM317.908 864.876V906.576H351.908V864.876H317.908ZM325.33 892.531L246.716 946.144L265.873 974.234L344.486 920.62L325.33 892.531ZM256.295 977.189H334.908V943.189H256.295V977.189ZM317.908 960.189V1001.79H351.908V960.189H317.908ZM334.908 984.79H191.744V1018.79H334.908V984.79ZM191.744 785.579H174.744V802.579H191.744V785.579ZM191.744 667.025V650.025H174.744V667.025H191.744ZM222.31 667.025H239.31V650.025H222.31V667.025ZM222.31 741.244H205.31V758.244H222.31V741.244ZM245.064 741.244V758.244H262.064V741.244H245.064ZM245.064 672.396V655.396H228.064V672.396H245.064ZM274.263 672.396H291.263V655.396H274.263V672.396ZM274.263 741.244H257.263V758.244H274.263V741.244ZM302.486 741.244V758.244H319.486V741.244H302.486ZM302.486 664.876V647.876H285.486V664.876H302.486ZM334.908 664.876H351.908V647.876H334.908V664.876ZM334.908 785.579V802.579H351.908V785.579H334.908ZM208.744 785.579V667.025H174.744V785.579H208.744ZM191.744 684.025H222.31V650.025H191.744V684.025ZM205.31 667.025V741.244H239.31V667.025H205.31ZM222.31 758.244H245.064V724.244H222.31V758.244ZM262.064 741.244V672.396H228.064V741.244H262.064ZM245.064 689.396H274.263V655.396H245.064V689.396ZM257.263 672.396V741.244H291.263V672.396H257.263ZM274.263 758.244H302.486V724.244H274.263V758.244ZM319.486 741.244V664.876H285.486V741.244H319.486ZM302.486 681.876H334.908V647.876H302.486V681.876ZM317.908 664.876V785.579H351.908V664.876H317.908ZM334.908 768.579H191.744V802.579H334.908V768.579Z" fill="white"/>
<g opacity="0.5">
<path d="M-4.41748 125.051V290.051H238.083V125.051H-4.41748Z" fill="white" fill-opacity="0.7"/>
<path d="M480.583 455.051V290.051H238.083V455.051H480.583Z" fill="white" fill-opacity="0.7"/>
<path d="M-4.41748 455.051V620.051H238.083V455.051H-4.41748Z" fill="white" fill-opacity="0.7"/>
<path d="M480.583 785.051V620.051H238.083V785.051H480.583Z" fill="white" fill-opacity="0.7"/>
<path d="M-4.41748 785.051V950.051H238.083V785.051H-4.41748Z" fill="white" fill-opacity="0.7"/>
<path d="M480.583 1115.05V950.051H238.083V1115.05H480.583Z" fill="white" fill-opacity="0.7"/>
<path d="M-4.41748 1115.05V1280.05H238.083V1115.05H-4.41748Z" fill="white" fill-opacity="0.7"/>
<path d="M480.583 1445.05V1280.05H238.083V1445.05H480.583Z" fill="white" fill-opacity="0.7"/>
<path d="M-4.41748 1445.05V1610.05H238.083V1445.05H-4.41748Z" fill="white" fill-opacity="0.7"/>
<path d="M480.583 1775.05V1610.05H238.083V1775.05H480.583Z" fill="white" fill-opacity="0.7"/>
<path d="M-4.41748 1775.05V1940.05H238.083V1775.05H-4.41748Z" fill="white" fill-opacity="0.7"/>
<path d="M480.583 2105.05V1940.05H238.083V2105.05H480.583Z" fill="white" fill-opacity="0.7"/>
<path d="M-4.41748 2105.05V2270.05H238.083V2105.05H-4.41748Z" fill="white" fill-opacity="0.7"/>
<path d="M480.583 2435.05V2270.05H238.083V2435.05H480.583Z" fill="white" fill-opacity="0.7"/>
<path d="M-4.41748 2435.05V2600.05H238.083V2435.05H-4.41748Z" fill="white" fill-opacity="0.7"/>
<path d="M480.583 2765.05V2600.05H238.083V2765.05H480.583Z" fill="white" fill-opacity="0.7"/>
<path d="M-4.41748 2765.05V2930.05H238.083V2765.05H-4.41748Z" fill="white" fill-opacity="0.7"/>
<path d="M480.583 3095.05V2930.05H238.083V3095.05H480.583Z" fill="white" fill-opacity="0.7"/>
<path d="M-4.41748 3095.05V3260.05H238.083V3095.05H-4.41748Z" fill="white" fill-opacity="0.7"/>
<path d="M480.583 3425.05V3260.05H238.083V3425.05H480.583Z" fill="white" fill-opacity="0.7"/>
<path d="M480.583 125.051V-39.9487H238.083V125.051H480.583Z" fill="white" fill-opacity="0.7"/>
</g>
<path d="M191.744 2497.01V2387.63H222.506V2452.57H247.506V2397.1H276.412V2452.57H334.908V2497.01H191.744ZM191.744 2312.05V2267.71H334.908V2312.05H191.744ZM191.744 2185.58V2144.27L270.943 2090.37H191.744V2048.67H334.908V2090.37L256.295 2143.98H334.908V2185.58H191.744ZM191.744 1967.51V1923.18H334.908V1967.51H191.744ZM287.545 1849.06L284.908 1806.97C291.744 1806.06 296.952 1804.2 300.533 1801.4C306.327 1796.84 309.224 1790.33 309.224 1781.87C309.224 1775.55 307.76 1770.7 304.83 1767.32C301.835 1763.87 298.385 1762.14 294.478 1762.14C290.767 1762.14 287.447 1763.77 284.517 1767.03C281.588 1770.28 278.821 1777.83 276.217 1789.68C271.855 1809.08 266.06 1822.92 258.834 1831.19C251.607 1839.52 242.395 1843.69 231.197 1843.69C223.84 1843.69 216.907 1841.57 210.396 1837.34C203.821 1833.04 198.678 1826.63 194.967 1818.1C191.191 1809.51 189.303 1797.75 189.302 1782.85C189.302 1764.55 192.72 1750.62 199.556 1741.05C206.327 1731.41 217.135 1725.68 231.978 1723.86L234.42 1765.56C227.974 1766.67 223.287 1769.01 220.357 1772.59C217.427 1776.11 215.963 1780.99 215.963 1787.24C215.963 1792.38 217.069 1796.26 219.283 1798.86C221.431 1801.47 224.068 1802.77 227.193 1802.77C229.472 1802.77 231.523 1801.69 233.345 1799.55C235.233 1797.46 236.991 1792.51 238.619 1784.7C242.786 1765.37 247.017 1751.53 251.314 1743.2C255.546 1734.8 260.819 1728.71 267.135 1724.94C273.45 1721.09 280.513 1719.17 288.326 1719.17C297.506 1719.17 305.969 1721.71 313.717 1726.79C321.464 1731.87 327.356 1738.97 331.392 1748.08C335.364 1757.2 337.349 1768.69 337.349 1782.55C337.349 1806.9 332.662 1823.76 323.287 1833.14C313.912 1842.51 301.998 1847.82 287.545 1849.06ZM191.744 1646.62V1602.38H241.842V1554.04H191.744V1509.6H334.908V1554.04H276.998V1602.38H334.908V1646.62H191.744ZM191.744 1313.41V1269.17H299.654V1200.13H334.908V1313.41H191.744ZM191.744 1128.26V1083.92H334.908V1128.26H191.744ZM191.744 1001.79V960.482L270.943 906.576H191.744V864.876H334.908V906.576L256.295 960.189H334.908V1001.79H191.744ZM191.744 785.579V667.025H222.31V741.244H245.064V672.396H274.263V741.244H302.486V664.876H334.908V785.579H191.744Z" fill="#BD2C26"/>
</g>
<defs>
<clipPath id="clip0_0_1">
<rect width="483" height="3384" fill="white" transform="translate(0.908203 0.849121)"/>
</clipPath>
</defs>
</svg>
