<svg width="7000" height="210" viewBox="0 0 7000 210" fill="none" xmlns="http://www.w3.org/2000/svg">
<rect width="7000" height="210" fill="#1E1E1E"/>
<g clip-path="url(#clip0_0_1)">
<rect x="-675" width="9078" height="210" fill="#181818"/>
<rect x="58" y="86" width="111" height="20" fill="#D9D9D9"/>
<rect x="458" y="86" width="111" height="20" fill="#D9D9D9"/>
<rect x="858" y="86" width="111" height="20" fill="#D9D9D9"/>
<rect x="1258" y="86" width="111" height="20" fill="#D9D9D9"/>
<rect x="1658" y="86" width="111" height="20" fill="#D9D9D9"/>
<rect x="2058" y="86" width="111" height="20" fill="#D9D9D9"/>
<rect x="2458" y="86" width="111" height="20" fill="#D9D9D9"/>
<rect x="2858" y="86" width="111" height="20" fill="#D9D9D9"/>
<rect x="3258" y="86" width="111" height="20" fill="#D9D9D9"/>
<rect x="3658" y="86" width="111" height="20" fill="#D9D9D9"/>
<rect x="4058" y="86" width="111" height="20" fill="#D9D9D9"/>
<rect x="258" y="86" width="111" height="20" fill="#D9D9D9"/>
<rect x="658" y="86" width="111" height="20" fill="#D9D9D9"/>
<rect x="1058" y="86" width="111" height="20" fill="#D9D9D9"/>
<rect x="1458" y="86" width="111" height="20" fill="#D9D9D9"/>
<rect x="1858" y="86" width="111" height="20" fill="#D9D9D9"/>
<rect x="2258" y="86" width="111" height="20" fill="#D9D9D9"/>
<rect x="2658" y="86" width="111" height="20" fill="#D9D9D9"/>
<rect x="3058" y="86" width="111" height="20" fill="#D9D9D9"/>
<rect x="3458" y="86" width="111" height="20" fill="#D9D9D9"/>
<rect x="3858" y="86" width="111" height="20" fill="#D9D9D9"/>
<rect x="4258" y="86" width="111" height="20" fill="#D9D9D9"/>
<rect x="-706.5" y="-3.5" width="9212" height="217" stroke="white" stroke-width="5"/>
<rect x="4258" y="85" width="111" height="20" fill="#D9D9D9"/>
<rect x="4658" y="85" width="111" height="20" fill="#D9D9D9"/>
<rect x="5058" y="85" width="111" height="20" fill="#D9D9D9"/>
<rect x="5458" y="85" width="111" height="20" fill="#D9D9D9"/>
<rect x="5858" y="85" width="111" height="20" fill="#D9D9D9"/>
<rect x="6258" y="85" width="111" height="20" fill="#D9D9D9"/>
<rect x="6658" y="85" width="111" height="20" fill="#D9D9D9"/>
<rect x="4458" y="85" width="111" height="20" fill="#D9D9D9"/>
<rect x="4858" y="85" width="111" height="20" fill="#D9D9D9"/>
<rect x="5258" y="85" width="111" height="20" fill="#D9D9D9"/>
<rect x="5658" y="85" width="111" height="20" fill="#D9D9D9"/>
<rect x="6058" y="85" width="111" height="20" fill="#D9D9D9"/>
<rect x="6458" y="85" width="111" height="20" fill="#D9D9D9"/>
<rect x="6858" y="85" width="111" height="20" fill="#D9D9D9"/>
</g>
<defs>
<clipPath id="clip0_0_1">
<rect width="7000" height="263" fill="white" transform="translate(0 -29)"/>
</clipPath>
</defs>
</svg>
