<svg width="10111" height="263" viewBox="0 0 10111 263" fill="none" xmlns="http://www.w3.org/2000/svg">
<rect width="10111" height="263" fill="#1E1E1E"/>
<rect x="67" width="9078" height="263" fill="#181818"/>
<rect y="115" width="111" height="20" fill="#D9D9D9"/>
<rect x="400" y="115" width="111" height="20" fill="#D9D9D9"/>
<rect x="800" y="115" width="111" height="20" fill="#D9D9D9"/>
<rect x="1200" y="115" width="111" height="20" fill="#D9D9D9"/>
<rect x="1600" y="115" width="111" height="20" fill="#D9D9D9"/>
<rect x="2000" y="115" width="111" height="20" fill="#D9D9D9"/>
<rect x="2400" y="115" width="111" height="20" fill="#D9D9D9"/>
<rect x="2800" y="115" width="111" height="20" fill="#D9D9D9"/>
<rect x="3200" y="115" width="111" height="20" fill="#D9D9D9"/>
<rect x="3600" y="115" width="111" height="20" fill="#D9D9D9"/>
<rect x="4000" y="115" width="111" height="20" fill="#D9D9D9"/>
<rect x="4400" y="115" width="111" height="20" fill="#D9D9D9"/>
<rect x="4800" y="115" width="111" height="20" fill="#D9D9D9"/>
<rect x="200" y="115" width="111" height="20" fill="#D9D9D9"/>
<rect x="600" y="115" width="111" height="20" fill="#D9D9D9"/>
<rect x="1000" y="115" width="111" height="20" fill="#D9D9D9"/>
<rect x="1400" y="115" width="111" height="20" fill="#D9D9D9"/>
<rect x="1800" y="115" width="111" height="20" fill="#D9D9D9"/>
<rect x="2200" y="115" width="111" height="20" fill="#D9D9D9"/>
<rect x="2600" y="115" width="111" height="20" fill="#D9D9D9"/>
<rect x="3000" y="115" width="111" height="20" fill="#D9D9D9"/>
<rect x="3400" y="115" width="111" height="20" fill="#D9D9D9"/>
<rect x="3800" y="115" width="111" height="20" fill="#D9D9D9"/>
<rect x="4200" y="115" width="111" height="20" fill="#D9D9D9"/>
<rect x="4600" y="115" width="111" height="20" fill="#D9D9D9"/>
<rect x="5000" y="115" width="111" height="20" fill="#D9D9D9"/>
<rect x="35.5" y="25.5" width="9212" height="217" stroke="white" stroke-width="5"/>
<rect x="5000" y="114" width="111" height="20" fill="#D9D9D9"/>
<rect x="5400" y="114" width="111" height="20" fill="#D9D9D9"/>
<rect x="5800" y="114" width="111" height="20" fill="#D9D9D9"/>
<rect x="6200" y="114" width="111" height="20" fill="#D9D9D9"/>
<rect x="6600" y="114" width="111" height="20" fill="#D9D9D9"/>
<rect x="7000" y="114" width="111" height="20" fill="#D9D9D9"/>
<rect x="7400" y="114" width="111" height="20" fill="#D9D9D9"/>
<rect x="7800" y="114" width="111" height="20" fill="#D9D9D9"/>
<rect x="8200" y="114" width="111" height="20" fill="#D9D9D9"/>
<rect x="8600" y="114" width="111" height="20" fill="#D9D9D9"/>
<rect x="9000" y="114" width="111" height="20" fill="#D9D9D9"/>
<rect x="9400" y="114" width="111" height="20" fill="#D9D9D9"/>
<rect x="9800" y="114" width="111" height="20" fill="#D9D9D9"/>
<rect x="5200" y="114" width="111" height="20" fill="#D9D9D9"/>
<rect x="5600" y="114" width="111" height="20" fill="#D9D9D9"/>
<rect x="6000" y="114" width="111" height="20" fill="#D9D9D9"/>
<rect x="6400" y="114" width="111" height="20" fill="#D9D9D9"/>
<rect x="6800" y="114" width="111" height="20" fill="#D9D9D9"/>
<rect x="7200" y="114" width="111" height="20" fill="#D9D9D9"/>
<rect x="7600" y="114" width="111" height="20" fill="#D9D9D9"/>
<rect x="8000" y="114" width="111" height="20" fill="#D9D9D9"/>
<rect x="8400" y="114" width="111" height="20" fill="#D9D9D9"/>
<rect x="8800" y="114" width="111" height="20" fill="#D9D9D9"/>
<rect x="9200" y="114" width="111" height="20" fill="#D9D9D9"/>
<rect x="9600" y="114" width="111" height="20" fill="#D9D9D9"/>
<rect x="10000" y="114" width="111" height="20" fill="#D9D9D9"/>
</svg>
