<svg width="3385" height="488" viewBox="0 0 3385 488" fill="none" xmlns="http://www.w3.org/2000/svg">
<rect width="3385" height="488" fill="#1E1E1E"/>
<g clip-path="url(#clip0_0_1)">
<path d="M888.404 192.327L888.426 175.327L871.426 175.305L871.404 192.305L888.404 192.327ZM997.784 192.464L1014.78 192.485L1014.81 175.485L997.805 175.464L997.784 192.464ZM997.745 223.226L997.724 240.226L1014.72 240.247L1014.75 223.247L997.745 223.226ZM932.806 223.144L932.827 206.144L915.827 206.123L915.806 223.123L932.806 223.144ZM932.774 248.144L915.774 248.123L915.753 265.123L932.753 265.144L932.774 248.144ZM988.244 248.214L1005.24 248.235L1005.27 231.235L988.265 231.214L988.244 248.214ZM988.208 277.12L988.186 294.12L1005.19 294.141L1005.21 277.141L988.208 277.12ZM932.738 277.05L932.759 260.05L915.759 260.029L915.738 277.029L932.738 277.05ZM932.664 335.546L932.643 352.546L949.643 352.568L949.664 335.568L932.664 335.546ZM888.225 335.49L871.225 335.469L871.203 352.469L888.203 352.49L888.225 335.49ZM888.383 209.327L997.763 209.464L997.805 175.464L888.426 175.327L888.383 209.327ZM980.784 192.443L980.745 223.205L1014.75 223.247L1014.78 192.485L980.784 192.443ZM997.767 206.226L932.827 206.144L932.784 240.144L997.724 240.226L997.767 206.226ZM915.806 223.123L915.774 248.123L949.774 248.166L949.806 223.166L915.806 223.123ZM932.753 265.144L988.223 265.214L988.265 231.214L932.796 231.144L932.753 265.144ZM971.244 248.193L971.208 277.099L1005.21 277.141L1005.24 248.235L971.244 248.193ZM988.229 260.12L932.759 260.05L932.717 294.05L988.186 294.12L988.229 260.12ZM915.738 277.029L915.664 335.525L949.664 335.568L949.738 277.072L915.738 277.029ZM932.686 318.546L888.246 318.49L888.203 352.49L932.643 352.546L932.686 318.546ZM905.225 335.512L905.404 192.348L871.404 192.305L871.225 335.469L905.225 335.512ZM1073.36 192.559L1073.39 175.559L1056.39 175.537L1056.36 192.537L1073.36 192.559ZM1117.7 192.614L1134.7 192.636L1134.73 175.636L1117.73 175.614L1117.7 192.614ZM1117.52 335.778L1117.5 352.778L1134.5 352.8L1134.52 335.8L1117.52 335.778ZM1073.18 335.723L1056.18 335.701L1056.16 352.701L1073.16 352.723L1073.18 335.723ZM1073.34 209.559L1117.68 209.614L1117.73 175.614L1073.39 175.559L1073.34 209.559ZM1100.7 192.593L1100.52 335.757L1134.52 335.8L1134.7 192.636L1100.7 192.593ZM1117.55 318.778L1073.21 318.723L1073.16 352.723L1117.5 352.778L1117.55 318.778ZM1090.18 335.744L1090.36 192.58L1056.36 192.537L1056.18 335.701L1090.18 335.744ZM1199.83 192.718L1199.86 175.718L1182.86 175.696L1182.83 192.696L1199.83 192.718ZM1241.14 192.769L1255.21 183.221L1250.16 175.781L1241.17 175.769L1241.14 192.769ZM1294.94 272.036L1280.88 281.584L1311.88 327.247L1311.94 272.057L1294.94 272.036ZM1295.04 192.837L1295.07 175.837L1278.07 175.816L1278.04 192.816L1295.04 192.837ZM1336.74 192.889L1353.74 192.911L1353.77 175.911L1336.77 175.889L1336.74 192.889ZM1336.56 336.053L1336.54 353.053L1353.54 353.075L1353.56 336.075L1336.56 336.053ZM1294.86 336.001L1280.81 345.561L1285.86 352.99L1294.84 353.001L1294.86 336.001ZM1241.35 257.321L1255.41 247.759L1224.42 202.199L1224.35 257.299L1241.35 257.321ZM1241.25 335.934L1241.23 352.934L1258.23 352.955L1258.25 335.955L1241.25 335.934ZM1199.65 335.881L1182.65 335.86L1182.63 352.86L1199.63 352.881L1199.65 335.881ZM1199.81 209.718L1241.12 209.769L1241.17 175.769L1199.86 175.718L1199.81 209.718ZM1227.07 202.317L1280.88 281.584L1309.02 262.489L1255.21 183.221L1227.07 202.317ZM1311.94 272.057L1312.04 192.858L1278.04 192.816L1277.94 272.015L1311.94 272.057ZM1295.02 209.837L1336.72 209.889L1336.77 175.889L1295.07 175.837L1295.02 209.837ZM1319.74 192.868L1319.56 336.032L1353.56 336.075L1353.74 192.911L1319.74 192.868ZM1336.59 319.053L1294.89 319.001L1294.84 353.001L1336.54 353.053L1336.59 319.053ZM1308.93 326.441L1255.41 247.759L1227.3 266.881L1280.81 345.561L1308.93 326.441ZM1224.35 257.299L1224.25 335.912L1258.25 335.955L1258.35 257.342L1224.35 257.299ZM1241.28 318.934L1199.68 318.881L1199.63 352.881L1241.23 352.934L1241.28 318.934ZM1216.65 335.903L1216.83 192.739L1182.83 192.696L1182.65 335.86L1216.65 335.903ZM1417.9 192.991L1417.93 175.991L1400.93 175.97L1400.9 192.97L1417.9 192.991ZM1462.23 193.047L1479.23 193.068L1479.26 176.068L1462.26 176.047L1462.23 193.047ZM1462.05 336.211L1462.03 353.211L1479.03 353.232L1479.05 336.232L1462.05 336.211ZM1417.72 336.155L1400.72 336.134L1400.7 353.134L1417.7 353.155L1417.72 336.155ZM1417.88 209.991L1462.21 210.047L1462.26 176.047L1417.93 175.991L1417.88 209.991ZM1445.23 193.026L1445.05 336.19L1479.05 336.232L1479.23 193.068L1445.23 193.026ZM1462.08 319.211L1417.75 319.155L1417.7 353.155L1462.03 353.211L1462.08 319.211ZM1434.72 336.177L1434.9 193.013L1400.9 192.97L1400.72 336.134L1434.72 336.177ZM1536.23 288.941L1535.19 271.973L1517.83 273.038L1519.29 290.369L1536.23 288.941ZM1578.33 286.357L1595.18 284.131L1593.11 268.417L1577.29 269.388L1578.33 286.357ZM1583.88 301.989L1570.47 312.443L1570.48 312.462L1570.5 312.482L1583.88 301.989ZM1617.95 306.329L1629.07 319.198L1629.07 319.19L1629.08 319.182L1617.95 306.329ZM1595.63 277.688L1591.88 294.269L1591.92 294.277L1591.96 294.286L1595.63 277.688ZM1554.14 260.252L1565.35 247.466L1565.33 247.444L1565.3 247.422L1554.14 260.252ZM1548.05 211.807L1533.83 202.49L1533.82 202.507L1533.81 202.524L1548.05 211.807ZM1567.31 196.402L1574.07 211.998L1574.1 211.986L1574.13 211.973L1567.31 196.402ZM1644.35 201.088L1634.46 214.909L1634.51 214.947L1634.57 214.985L1644.35 201.088ZM1661.5 233.531L1662.47 250.503L1680.56 249.467L1678.38 231.48L1661.5 233.531ZM1619.8 235.921L1603.04 238.777L1605.6 253.762L1620.77 252.893L1619.8 235.921ZM1612.79 221.849L1601.88 234.895L1601.94 234.944L1602 234.992L1612.79 221.849ZM1586.52 220.742L1597.32 233.869L1597.41 233.79L1597.51 233.709L1586.52 220.742ZM1585.81 234.803L1597.25 222.222L1597.04 222.034L1596.83 221.855L1585.81 234.803ZM1600.65 240.096L1604.26 223.481L1604.2 223.469L1604.15 223.457L1600.65 240.096ZM1642.14 252.843L1634.33 267.943L1634.4 267.979L1634.47 268.015L1642.14 252.843ZM1660.38 268.687L1645.78 277.392L1645.82 277.448L1645.85 277.503L1660.38 268.687ZM1637.16 332.915L1643.93 348.508L1643.98 348.488L1644.02 348.467L1637.16 332.915ZM1537.28 305.908L1579.38 303.325L1577.29 269.388L1535.19 271.973L1537.28 305.908ZM1561.47 288.583C1562.58 296.988 1565.09 305.544 1570.47 312.443L1597.28 291.535C1597.07 291.265 1595.88 289.4 1595.18 284.131L1561.47 288.583ZM1570.5 312.482C1578.77 323.024 1590.57 327.688 1603.37 327.704L1603.42 293.704C1599.3 293.699 1598.08 292.554 1597.25 291.496L1570.5 312.482ZM1603.37 327.704C1612.11 327.715 1621.52 325.708 1629.07 319.198L1606.85 293.46C1607.61 292.8 1607.31 293.709 1603.42 293.704L1603.37 327.704ZM1629.08 319.182C1635.56 313.571 1640.13 305.69 1640.14 296.004L1606.14 295.962C1606.14 295.676 1606.18 295.32 1606.27 294.925C1606.37 294.529 1606.5 294.173 1606.65 293.877C1606.95 293.277 1607.17 293.176 1606.83 293.476L1629.08 319.182ZM1640.14 296.004C1640.16 286.599 1635.79 278.92 1629.66 273.394L1606.88 298.638C1607.19 298.913 1606.95 298.787 1606.65 298.172C1606.32 297.494 1606.14 296.691 1606.14 295.962L1640.14 296.004ZM1629.66 273.394C1625.59 269.725 1620.44 267.396 1616.04 265.779C1611.28 264.03 1605.63 262.489 1599.3 261.088L1591.96 294.286C1597.47 295.505 1601.5 296.661 1604.3 297.688C1607.45 298.848 1607.7 299.374 1606.88 298.638L1629.66 273.394ZM1599.38 261.106C1580.83 256.913 1570.38 251.874 1565.35 247.466L1542.94 273.038C1554.43 283.105 1571.62 289.688 1591.88 294.269L1599.38 261.106ZM1565.3 247.422C1560.76 243.476 1558.67 238.977 1558.67 232.621L1524.67 232.578C1524.65 248.618 1530.89 262.555 1542.99 273.081L1565.3 247.422ZM1558.67 232.621C1558.68 228.74 1559.74 225 1562.3 221.09L1533.81 202.524C1527.88 211.624 1524.69 221.746 1524.67 232.578L1558.67 232.621ZM1562.27 221.125C1564.44 217.808 1568.02 214.626 1574.07 211.998L1560.55 180.804C1549.54 185.578 1540.27 192.665 1533.83 202.49L1562.27 221.125ZM1574.13 211.973C1579.67 209.545 1588.77 207.764 1602.55 207.781L1602.59 173.781C1586.56 173.762 1572.15 175.727 1560.49 180.829L1574.13 211.973ZM1602.55 207.781C1619.14 207.802 1628.97 210.982 1634.46 214.909L1654.25 187.267C1640.61 177.498 1622.6 173.806 1602.59 173.781L1602.55 207.781ZM1634.57 214.985C1639.25 218.29 1643.23 224.133 1644.63 235.582L1678.38 231.48C1676.16 213.238 1668.71 197.452 1654.14 187.191L1634.57 214.985ZM1660.52 216.559L1618.83 218.949L1620.77 252.893L1662.47 250.503L1660.52 216.559ZM1636.55 233.065C1635.05 224.234 1631.41 215.133 1623.56 208.706L1602 234.992C1601.32 234.434 1602.35 234.713 1603.04 238.777L1636.55 233.065ZM1623.68 208.803C1616.17 202.522 1606.94 200.448 1598.16 200.437L1598.12 234.437C1601.84 234.441 1602.38 235.308 1601.88 234.895L1623.68 208.803ZM1598.16 200.437C1590.95 200.428 1582.43 201.919 1575.53 207.775L1597.51 233.709C1596.66 234.427 1596.01 234.615 1596.03 234.61C1596.04 234.605 1596.21 234.558 1596.57 234.516C1596.93 234.472 1597.44 234.436 1598.12 234.437L1598.16 200.437ZM1575.72 207.615C1569.55 212.69 1565.61 219.979 1565.6 228.626L1599.6 228.668C1599.6 229.549 1599.4 230.706 1598.82 231.873C1598.25 233.005 1597.59 233.64 1597.32 233.869L1575.72 207.615ZM1565.6 228.626C1565.59 237.054 1569.83 243.525 1574.81 247.752L1596.83 221.855C1597.07 222.059 1597.81 222.743 1598.47 224.026C1599.18 225.395 1599.6 227.014 1599.6 228.668L1565.6 228.626ZM1574.39 247.386C1577.96 250.638 1582.3 252.461 1585.38 253.557C1588.85 254.794 1592.85 255.829 1597.16 256.734L1604.15 223.457C1600.65 222.725 1598.28 222.06 1596.8 221.533C1596.45 221.408 1596.19 221.306 1596.01 221.229C1595.83 221.151 1595.75 221.111 1595.76 221.116C1595.77 221.12 1595.91 221.192 1596.14 221.348C1596.37 221.501 1596.77 221.784 1597.25 222.222L1574.39 247.386ZM1597.05 256.709C1616.17 260.853 1628.12 264.731 1634.33 267.943L1649.95 237.744C1639.5 232.34 1623.8 227.72 1604.26 223.481L1597.05 256.709ZM1634.47 268.015C1640.78 271.203 1644.06 274.516 1645.78 277.392L1674.98 259.98C1669.16 250.217 1660.29 242.968 1649.81 237.672L1634.47 268.015ZM1645.85 277.503C1647.97 281.004 1649.13 284.982 1649.12 289.864L1683.12 289.906C1683.14 279.163 1680.46 269.008 1674.92 259.87L1645.85 277.503ZM1649.12 289.864C1649.12 295.701 1647.55 300.928 1644.26 305.929L1672.68 324.603C1679.56 314.122 1683.11 302.429 1683.12 289.906L1649.12 289.864ZM1644.26 305.929C1641.11 310.725 1636.66 314.554 1630.3 317.362L1644.02 348.467C1655.9 343.226 1665.66 335.289 1672.68 324.603L1644.26 305.929ZM1630.39 317.321C1624.08 320.06 1615.09 321.844 1602.7 321.828L1602.66 355.828C1618 355.848 1631.99 353.689 1643.93 348.508L1630.39 317.321ZM1602.7 321.828C1579.44 321.799 1568.53 317.095 1564.14 312.697L1540.07 336.709C1554.42 351.084 1577.21 355.796 1602.66 355.828L1602.7 321.828ZM1564.14 312.697C1557.88 306.422 1554.09 298.376 1553.18 287.512L1519.29 290.369C1520.82 308.414 1527.61 324.21 1540.07 336.709L1564.14 312.697ZM1738.79 193.394L1738.81 176.394L1721.81 176.373L1721.79 193.373L1738.79 193.394ZM1783.03 193.45L1800.03 193.471L1800.05 176.471L1783.05 176.45L1783.03 193.45ZM1782.97 243.548L1765.97 243.526L1765.95 260.526L1782.95 260.548L1782.97 243.548ZM1831.31 243.608L1831.29 260.608L1848.29 260.63L1848.31 243.63L1831.31 243.608ZM1831.37 193.51L1831.39 176.51L1814.39 176.489L1814.37 193.489L1831.37 193.51ZM1875.81 193.566L1892.81 193.588L1892.83 176.588L1875.83 176.566L1875.81 193.566ZM1875.63 336.73L1875.61 353.73L1892.61 353.751L1892.63 336.751L1875.63 336.73ZM1831.19 336.674L1814.19 336.653L1814.17 353.653L1831.17 353.674L1831.19 336.674ZM1831.27 278.764L1848.27 278.786L1848.29 261.786L1831.29 261.764L1831.27 278.764ZM1782.93 278.704L1782.95 261.704L1765.95 261.682L1765.93 278.682L1782.93 278.704ZM1782.85 336.614L1782.83 353.614L1799.83 353.635L1799.85 336.635L1782.85 336.614ZM1738.61 336.558L1721.61 336.537L1721.59 353.537L1738.59 353.558L1738.61 336.558ZM1738.77 210.394L1783.01 210.45L1783.05 176.45L1738.81 176.394L1738.77 210.394ZM1766.03 193.428L1765.97 243.526L1799.97 243.569L1800.03 193.471L1766.03 193.428ZM1782.95 260.548L1831.29 260.608L1831.33 226.608L1782.99 226.548L1782.95 260.548ZM1848.31 243.63L1848.37 193.532L1814.37 193.489L1814.31 243.587L1848.31 243.63ZM1831.35 210.51L1875.79 210.566L1875.83 176.566L1831.39 176.51L1831.35 210.51ZM1858.81 193.545L1858.63 336.709L1892.63 336.751L1892.81 193.588L1858.81 193.545ZM1875.66 319.73L1831.22 319.674L1831.17 353.674L1875.61 353.73L1875.66 319.73ZM1848.19 336.696L1848.27 278.786L1814.27 278.743L1814.19 336.653L1848.19 336.696ZM1831.29 261.764L1782.95 261.704L1782.91 295.704L1831.25 295.764L1831.29 261.764ZM1765.93 278.682L1765.85 336.592L1799.85 336.635L1799.93 278.725L1765.93 278.682ZM1782.88 319.614L1738.64 319.558L1738.59 353.558L1782.83 353.614L1782.88 319.614ZM1755.61 336.579L1755.79 193.416L1721.79 193.373L1721.61 336.537L1755.61 336.579ZM2072 193.813L2072.02 176.813L2055.02 176.791L2055 193.791L2072 193.813ZM2116.24 193.868L2133.24 193.889L2133.26 176.889L2116.26 176.868L2116.24 193.868ZM2116.11 301.778L2099.11 301.757L2099.09 318.757L2116.09 318.778L2116.11 301.778ZM2185.15 301.865L2202.15 301.886L2202.17 284.886L2185.17 284.865L2185.15 301.865ZM2185.1 337.119L2185.08 354.119L2202.08 354.14L2202.1 337.14L2185.1 337.119ZM2071.82 336.976L2054.82 336.955L2054.8 353.955L2071.8 353.976L2071.82 336.976ZM2071.98 210.812L2116.22 210.868L2116.26 176.868L2072.02 176.813L2071.98 210.812ZM2099.24 193.847L2099.11 301.757L2133.11 301.799L2133.24 193.889L2099.24 193.847ZM2116.09 318.778L2185.13 318.865L2185.17 284.865L2116.13 284.778L2116.09 318.778ZM2168.15 301.843L2168.1 337.097L2202.1 337.14L2202.15 301.886L2168.15 301.843ZM2185.12 320.119L2071.84 319.976L2071.8 353.976L2185.08 354.119L2185.12 320.119ZM2088.82 336.998L2089 193.834L2055 193.791L2054.82 336.955L2088.82 336.998ZM2257.15 194.045L2257.17 177.045L2240.17 177.024L2240.15 194.024L2257.15 194.045ZM2301.49 194.101L2318.49 194.122L2318.51 177.122L2301.51 177.101L2301.49 194.101ZM2301.31 337.265L2301.29 354.264L2318.29 354.286L2318.31 337.286L2301.31 337.265ZM2256.97 337.209L2239.97 337.187L2239.95 354.187L2256.95 354.209L2256.97 337.209ZM2257.13 211.045L2301.47 211.101L2301.51 177.101L2257.17 177.045L2257.13 211.045ZM2284.49 194.079L2284.31 337.243L2318.31 337.286L2318.49 194.122L2284.49 194.079ZM2301.33 320.265L2256.99 320.209L2256.95 354.209L2301.29 354.264L2301.33 320.265ZM2273.97 337.23L2274.15 194.066L2240.15 194.024L2239.97 337.187L2273.97 337.23ZM2383.62 194.204L2383.64 177.204L2366.64 177.182L2366.62 194.182L2383.62 194.204ZM2424.93 194.256L2439 184.707L2433.94 177.267L2424.95 177.256L2424.93 194.256ZM2478.74 273.522L2464.67 283.071L2495.67 328.732L2495.74 273.544L2478.74 273.522ZM2478.84 194.323L2478.86 177.323L2461.86 177.302L2461.84 194.302L2478.84 194.323ZM2520.54 194.376L2537.54 194.397L2537.56 177.397L2520.56 177.376L2520.54 194.376ZM2520.36 337.54L2520.33 354.539L2537.33 354.561L2537.36 337.561L2520.36 337.54ZM2478.66 337.487L2464.6 347.048L2469.65 354.476L2478.63 354.487L2478.66 337.487ZM2425.14 258.807L2439.2 249.246L2408.21 203.686L2408.14 258.786L2425.14 258.807ZM2425.04 337.42L2425.02 354.42L2442.02 354.441L2442.04 337.441L2425.04 337.42ZM2383.44 337.368L2366.44 337.346L2366.42 354.346L2383.42 354.368L2383.44 337.368ZM2383.6 211.204L2424.91 211.256L2424.95 177.256L2383.64 177.204L2383.6 211.204ZM2410.87 203.803L2464.67 283.071L2492.8 263.975L2439 184.707L2410.87 203.803ZM2495.74 273.544L2495.84 194.345L2461.84 194.302L2461.74 273.501L2495.74 273.544ZM2478.81 211.323L2520.51 211.376L2520.56 177.376L2478.86 177.323L2478.81 211.323ZM2503.54 194.354L2503.36 337.518L2537.36 337.561L2537.54 194.397L2503.54 194.354ZM2520.38 320.54L2478.68 320.487L2478.63 354.487L2520.33 354.539L2520.38 320.54ZM2492.71 327.927L2439.2 249.246L2411.08 268.367L2464.6 347.048L2492.71 327.927ZM2408.14 258.786L2408.04 337.398L2442.04 337.441L2442.14 258.828L2408.14 258.786ZM2425.06 320.42L2383.46 320.368L2383.42 354.368L2425.02 354.42L2425.06 320.42ZM2400.44 337.389L2400.62 194.225L2366.62 194.182L2366.44 337.346L2400.44 337.389ZM2599.83 194.475L2599.85 177.475L2582.85 177.454L2582.83 194.454L2599.83 194.475ZM2718.39 194.624L2735.39 194.645L2735.41 177.645L2718.41 177.624L2718.39 194.624ZM2718.35 225.19L2718.33 242.19L2735.33 242.211L2735.35 225.211L2718.35 225.19ZM2644.13 225.097L2644.15 208.097L2627.15 208.075L2627.13 225.075L2644.13 225.097ZM2644.1 247.851L2627.1 247.829L2627.08 264.829L2644.08 264.851L2644.1 247.851ZM2712.95 247.937L2729.95 247.959L2729.97 230.959L2712.97 230.937L2712.95 247.937ZM2712.91 277.136L2712.89 294.136L2729.89 294.158L2729.91 277.158L2712.91 277.136ZM2644.06 277.05L2644.09 260.05L2627.09 260.028L2627.06 277.028L2644.06 277.05ZM2644.03 305.273L2627.03 305.251L2627.01 322.251L2644.01 322.273L2644.03 305.273ZM2720.4 305.369L2737.4 305.39L2737.42 288.39L2720.42 288.369L2720.4 305.369ZM2720.36 337.791L2720.33 354.791L2737.33 354.812L2737.36 337.812L2720.36 337.791ZM2599.65 337.639L2582.65 337.618L2582.63 354.618L2599.63 354.639L2599.65 337.639ZM2599.81 211.475L2718.37 211.624L2718.41 177.624L2599.85 177.475L2599.81 211.475ZM2701.39 194.603L2701.35 225.169L2735.35 225.211L2735.39 194.645L2701.39 194.603ZM2718.37 208.19L2644.15 208.097L2644.11 242.097L2718.33 242.19L2718.37 208.19ZM2627.13 225.075L2627.1 247.829L2661.1 247.872L2661.13 225.118L2627.13 225.075ZM2644.08 264.851L2712.93 264.937L2712.97 230.937L2644.12 230.851L2644.08 264.851ZM2695.95 247.916L2695.91 277.115L2729.91 277.158L2729.95 247.959L2695.95 247.916ZM2712.93 260.136L2644.09 260.05L2644.04 294.05L2712.89 294.136L2712.93 260.136ZM2627.06 277.028L2627.03 305.251L2661.03 305.294L2661.06 277.071L2627.06 277.028ZM2644.01 322.273L2720.38 322.369L2720.42 288.369L2644.05 288.273L2644.01 322.273ZM2703.4 305.347L2703.36 337.769L2737.36 337.812L2737.4 305.39L2703.4 305.347ZM2720.38 320.791L2599.67 320.639L2599.63 354.639L2720.33 354.791L2720.38 320.791ZM2616.65 337.66L2616.83 194.497L2582.83 194.454L2582.65 337.618L2616.65 337.66Z" fill="white"/>
<g opacity="0.5">
<path d="M3260.61 -0.857178L3095.61 -1.06432L3095.3 241.435L3260.3 241.643L3260.61 -0.857178Z" fill="white" fill-opacity="0.7"/>
<path d="M2930 483.728L3095 483.935L3095.3 241.436L2930.3 241.228L2930 483.728Z" fill="white" fill-opacity="0.7"/>
<path d="M2930.61 -1.27148L2765.61 -1.47863L2765.3 241.021L2930.3 241.228L2930.61 -1.27148Z" fill="white" fill-opacity="0.7"/>
<path d="M2600 483.314L2765 483.521L2765.3 241.021L2600.3 240.814L2600 483.314Z" fill="white" fill-opacity="0.7"/>
<path d="M2600.61 -1.68579L2435.61 -1.89294L2435.3 240.607L2600.3 240.814L2600.61 -1.68579Z" fill="white" fill-opacity="0.7"/>
<path d="M2270 482.9L2435 483.107L2435.3 240.607L2270.3 240.4L2270 482.9Z" fill="white" fill-opacity="0.7"/>
<path d="M2270.61 -2.1001L2105.61 -2.30724L2105.3 240.193L2270.3 240.4L2270.61 -2.1001Z" fill="white" fill-opacity="0.7"/>
<path d="M1940 482.485L2105 482.692L2105.3 240.193L1940.3 239.985L1940 482.485Z" fill="white" fill-opacity="0.7"/>
<path d="M1940.61 -2.5144L1775.61 -2.72155L1775.3 239.778L1940.3 239.985L1940.61 -2.5144Z" fill="white" fill-opacity="0.7"/>
<path d="M1610 482.071L1775 482.278L1775.3 239.778L1610.3 239.571L1610 482.071Z" fill="white" fill-opacity="0.7"/>
<path d="M1610.61 -2.92871L1445.61 -3.13586L1445.3 239.364L1610.3 239.571L1610.61 -2.92871Z" fill="white" fill-opacity="0.7"/>
<path d="M1280 481.657L1445 481.864L1445.3 239.364L1280.3 239.157L1280 481.657Z" fill="white" fill-opacity="0.7"/>
<path d="M1280.61 -3.34302L1115.61 -3.55016L1115.3 238.95L1280.3 239.157L1280.61 -3.34302Z" fill="white" fill-opacity="0.7"/>
<path d="M949.999 481.242L1115 481.45L1115.3 238.95L950.304 238.743L949.999 481.242Z" fill="white" fill-opacity="0.7"/>
<path d="M950.608 -3.75732L785.608 -3.96447L785.304 238.535L950.304 238.742L950.608 -3.75732Z" fill="white" fill-opacity="0.7"/>
<path d="M619.999 480.828L784.999 481.035L785.304 238.535L620.304 238.328L619.999 480.828Z" fill="white" fill-opacity="0.7"/>
<path d="M620.608 -4.17139L455.608 -4.37853L455.304 238.121L620.304 238.328L620.608 -4.17139Z" fill="white" fill-opacity="0.7"/>
<path d="M290 480.414L455 480.621L455.304 238.121L290.304 237.914L290 480.414Z" fill="white" fill-opacity="0.7"/>
<path d="M290.609 -4.58569L125.609 -4.79284L125.304 237.707L290.304 237.914L290.609 -4.58569Z" fill="white" fill-opacity="0.7"/>
<path d="M-40.0001 480L125 480.207L125.304 237.707L-39.6957 237.5L-40.0001 480Z" fill="white" fill-opacity="0.7"/>
<path d="M3260 484.143L3425 484.35L3425.3 241.85L3260.3 241.643L3260 484.143Z" fill="white" fill-opacity="0.7"/>
</g>
<path d="M888.404 192.327L997.784 192.464L997.746 223.226L932.806 223.144L932.774 248.144L988.244 248.214L988.208 277.12L932.738 277.05L932.665 335.546L888.225 335.49L888.404 192.327ZM1073.36 192.559L1117.7 192.614L1117.52 335.778L1073.18 335.723L1073.36 192.559ZM1199.83 192.718L1241.14 192.769L1294.94 272.036L1295.04 192.837L1336.74 192.889L1336.56 336.053L1294.86 336.001L1241.35 257.321L1241.25 335.934L1199.65 335.881L1199.83 192.718ZM1417.9 192.991L1462.23 193.047L1462.05 336.211L1417.72 336.155L1417.9 192.991ZM1536.23 288.941L1578.33 286.357C1579.23 293.194 1581.08 298.404 1583.88 301.989C1588.43 307.788 1594.94 310.694 1603.4 310.704C1609.72 310.712 1614.57 309.254 1617.95 306.329C1621.41 303.338 1623.14 299.89 1623.14 295.983C1623.15 292.272 1621.52 288.95 1618.27 286.016C1615.02 283.083 1607.47 280.306 1595.63 277.687C1576.23 273.301 1562.4 267.489 1554.14 260.252C1545.82 253.015 1541.66 243.798 1541.67 232.6C1541.68 225.243 1543.81 218.312 1548.05 211.807C1552.36 205.237 1558.78 200.102 1567.31 196.402C1575.9 192.637 1587.67 190.763 1602.57 190.781C1620.87 190.804 1634.79 194.24 1644.35 201.088C1653.99 207.871 1659.7 218.686 1661.5 233.531L1619.8 235.921C1618.7 229.473 1616.36 224.784 1612.79 221.849C1609.27 218.915 1604.39 217.444 1598.14 217.437C1593 217.43 1589.12 218.531 1586.52 220.742C1583.91 222.887 1582.6 225.522 1582.6 228.647C1582.6 230.926 1583.67 232.978 1585.81 234.803C1587.9 236.694 1592.85 238.458 1600.65 240.096C1619.98 244.287 1633.81 248.535 1642.14 252.843C1650.53 257.085 1656.62 262.366 1660.38 268.687C1664.22 275.007 1666.13 282.072 1666.12 289.885C1666.11 299.065 1663.56 307.525 1658.47 315.266C1653.38 323.007 1646.27 328.89 1637.16 332.915C1628.03 336.875 1616.54 338.846 1602.68 338.828C1578.33 338.798 1561.48 334.09 1552.11 324.703C1542.75 315.316 1537.46 303.395 1536.23 288.941ZM1738.79 193.394L1783.03 193.45L1782.97 243.548L1831.31 243.608L1831.37 193.51L1875.81 193.566L1875.63 336.73L1831.19 336.674L1831.27 278.764L1782.93 278.704L1782.85 336.614L1738.61 336.558L1738.79 193.394ZM2072 193.812L2116.24 193.868L2116.11 301.778L2185.15 301.865L2185.1 337.119L2071.82 336.976L2072 193.812ZM2257.15 194.045L2301.49 194.101L2301.31 337.265L2256.97 337.209L2257.15 194.045ZM2383.62 194.204L2424.93 194.256L2478.74 273.522L2478.84 194.323L2520.54 194.376L2520.36 337.539L2478.66 337.487L2425.14 258.807L2425.04 337.42L2383.44 337.368L2383.62 194.204ZM2599.83 194.475L2718.39 194.624L2718.35 225.19L2644.13 225.097L2644.1 247.851L2712.95 247.937L2712.91 277.136L2644.06 277.05L2644.03 305.273L2720.4 305.369L2720.36 337.791L2599.65 337.639L2599.83 194.475Z" fill="#BD2C26"/>
</g>
<defs>
<clipPath id="clip0_0_1">
<rect width="483" height="3384" fill="white" transform="translate(3384.8 4.62451) rotate(90.0719)"/>
</clipPath>
</defs>
</svg>
